<svg xmlns="http://www.w3.org/2000/svg" viewBox="0 0 64 64" width="64px" height="64px"><linearGradient id="niuaOr0_DC3FUK7Am7ATba" x1="34.999" x2="34.999" y1="6" y2="56" gradientUnits="userSpaceOnUse" spreadMethod="reflect"><stop offset="0" stop-color="#1a6dff"/><stop offset="1" stop-color="#c822ff"/></linearGradient><path fill="url(#niuaOr0_DC3FUK7Am7ATba)" d="M31.75,8c0.844,0.336,1.668,0.801,2.4,1.327c0.236,1.01,0.65,2.084,0.292,3.116 c-0.304,0.285-0.716,0.402-1.083,0.577c0.044,0.399,0.108,0.793,0.169,1.189c0.693-0.06,1.293-1.206,1.973-1.34 c0.094-0.411,0.118-0.857,0.374-1.205c0.056,0.278,0.101,0.559,0.136,0.842C36.376,12.722,36.5,13,37.125,13h9.125 c0.01-0.001,0.021-0.001,0.031-0.001c0.297,0,0.511,0.333,0.719,0.501c0.007-0.614-0.027-1.386,0-2 c0.022,0.001,0.078,0.001,0.151,0.001c0.163,0,0.407-0.001,0.531-0.001c0.032,0,0.055,0,0.068,0c0.017,0.539,0.007,1.225,0.155,1.75 c0.158,0.037,0.321,0.048,0.486,0.069c0.008,0.21-0.029,0.469-0.016,0.681c0.833,0,2.349-0.001,3.442-0.001 c0.546,0,0.987,0,1.183,0.001c0,0.5,0,1.375,0,2c-1.25,0-10.25,0-10.25,0c-0.021-0.001-0.041-0.001-0.062-0.001 c-0.345,0-0.655,0.077-0.876,0.375c-0.327,0.415-0.724,0.733-1.039,1.157c-0.102,0.779,0.054,1.915,0.226,2.662 c-0.262,0.097-0.525,0.187-0.784,0.286c-0.264,0.842-0.16,1.918-0.919,2.508c-0.419,0.32-0.789,0.718-1.269,0.945 C37.921,23.982,37.811,24,37.699,24c-0.249,0-0.503-0.09-0.745-0.127c-1.308-0.2-2.535-1.398-3.703-1.96 c-0.076,0.321-0.162,0.637-0.247,0.956c0.354,0.232,0.504,0.424,0.62,0.882c0.178,0.669,0.318,1.372,0.292,2.054 c-0.056,0.626-0.073,1.255-0.132,1.88c-0.057,0.607-0.404,1.129-0.759,1.602c-0.333-0.083-0.351-0.174-0.68-0.263 c-0.354,0.772-0.059,1.731,0.524,2.305c1.518,1.674,2.429,3.447,3.2,5.547c0.132,0.443,0.581,0.706,0.657,1.173 c0.128,0.496,0.309,0.992,0.267,1.513c-0.058,0.913-0.123,1.826-0.214,2.737c-0.063,0.668-0.307,1.334-0.163,2.009 c0.107,0.549,0.173,1.13-0.024,1.669c-0.268,0.676-0.526,1.52-0.53,2.237c0.013,0.473-0.419,0.991-0.097,1.366 c0.382,0.477,0.756,0.974,1.213,1.381c0.566,0.376,1.345,0.378,1.811,0.922c0.147,0.298,0.042,0.644,0.038,0.963 c-0.56,0.086-1.131,0.141-1.7,0.152c-0.065,0.001-0.13,0.002-0.195,0.002c-0.861,0-1.72-0.108-2.542-0.377 c-0.21-0.069-0.426-0.09-0.644-0.09c-0.306,0-0.615,0.04-0.919,0.04c-0.31,0-0.615-0.041-0.903-0.209 c0.042-0.935,0.264-1.848,0.59-2.721c0.134-0.652,0.317-1.881,0.303-2.541c-0.009-0.57-0.298-1.074-0.41-1.623 c-0.319-1.176-0.41-2.401-0.465-3.616c-0.07-0.597,0.429-1.046,0.448-1.63c0.105-0.518-0.246-0.641-0.56-1.067 c-0.033-0.001-0.066-0.001-0.099-0.001c-0.136,0-0.28,0.006-0.425,0.006c-0.424,0-0.852-0.053-1.066-0.472 c-0.642-0.961-0.689-1.509-1.329-2.47c-0.222-0.415-0.757-0.317-1.124-0.499c-0.327-0.306-0.49-0.738-0.694-1.128 c-0.119,0.446-0.282,0.895-0.608,1.232c-0.514,0.523-0.698,1.251-0.964,1.915c-0.187,0.48-0.356,0.971-0.424,1.484 c-0.072,0.388-0.089,0.841-0.431,1.094c-0.502,0.385-0.681,1.035-1.14,1.459c-0.342,0.331-0.551,0.781-0.664,1.24 c-0.037,0.414,0.082,0.834-0.022,1.243c-0.186,0.749-0.594,1.41-0.892,2.114c-0.212,0.494-0.323,1.027-0.554,1.513 c-0.155,0.34-0.551,0.451-0.769,0.736c-0.63,1.099-0.831,2.424-0.606,3.671c0.182,0.495,0.313,1.013,0.201,1.544 c-0.388,0.054-0.772,0.118-1.16,0.154h-1.201c-0.312-0.067-0.633-0.116-0.919-0.264c-0.213-0.676-0.177-1.418,0.014-2.095 c0.282-1.019,0.537-2.045,0.791-3.069c0.171-0.503-0.234-0.953-0.198-1.456c-0.041-0.742,0.411-1.352,0.738-1.971 c0.306-0.55,0.198-1.212,0.411-1.792c0.482-1.259,1.394-2.284,1.936-3.512c0.167-0.5-0.014-1.032,0.019-1.547 c0.041-0.976,0.231-1.94,0.396-2.901c0.056-0.371,0.174-0.762,0.033-1.127c-0.15-0.435-0.256-0.897-0.197-1.362 c0.062-0.427-0.189-0.851-0.031-1.268c0.084-0.354,0.404-0.553,0.66-0.774c0.047-1.455-0.475-2.884-0.256-4.334 c0.249-0.314,0.651-0.427,1-0.585c-0.511-0.107-0.941-0.202-1.45-0.316c-0.02-0.587,0.058-1.168,0.179-1.741 c0.187-0.894,0.084-1.818,0.224-2.717c0.021-0.229,0.267-0.306,0.461-0.314c0.465-0.034,0.85-0.07,1.307-0.182 c-0.135-1.136-0.247-2.652,0.006-3.783c0.245-1.334,0.834-2.686,1.938-3.513c0.347-0.238,0.765-0.357,1.192-0.357 c0.508,0,1.028,0.168,1.46,0.506c0.065-0.046,0.196-0.136,0.261-0.179c-0.461-1.263-0.36-2.723,0.374-3.861 C28.885,8.709,29.666,8.269,30.5,8H31H31.75 M31.75,6H31h-0.5c-0.209,0-0.416,0.033-0.614,0.097 c-1.445,0.466-2.515,1.255-3.181,2.344c-0.5,0.775-0.807,1.673-0.91,2.609c-0.651,0.08-1.266,0.309-1.8,0.676 c-0.023,0.016-0.046,0.032-0.069,0.049c-1.743,1.305-2.43,3.278-2.699,4.717c-0.151,0.696-0.212,1.521-0.182,2.496 c-0.875,0.285-1.498,1-1.613,1.914c-0.077,0.515-0.093,1.006-0.106,1.441c-0.013,0.42-0.026,0.816-0.092,1.131 c-0.171,0.81-0.244,1.537-0.221,2.219c0.014,0.426,0.163,0.822,0.407,1.144c-0.052,0.873,0.061,1.682,0.162,2.413 c0.038,0.27,0.074,0.533,0.1,0.785c-0.214,0.261-0.419,0.595-0.539,1.015c-0.227,0.697-0.121,1.306-0.063,1.641 c0.004,0.023,0.009,0.047,0.012,0.07c-0.076,0.803,0.085,1.488,0.243,1.981c-0.005,0.029-0.011,0.058-0.016,0.087 c-0.016,0.089-0.032,0.178-0.045,0.266l-0.061,0.348c-0.155,0.882-0.315,1.793-0.355,2.768c-0.02,0.309,0.008,0.616,0.031,0.862 c0.005,0.056,0.011,0.123,0.016,0.179c-0.184,0.367-0.422,0.745-0.671,1.142c-0.408,0.649-0.871,1.384-1.2,2.244 c-0.184,0.499-0.236,0.944-0.275,1.27c-0.013,0.107-0.029,0.248-0.044,0.317c-0.059,0.109-0.107,0.193-0.155,0.277 c-0.335,0.591-0.837,1.475-0.809,2.61c-0.012,0.51,0.113,0.93,0.202,1.204c-0.218,0.878-0.461,1.85-0.721,2.791 c-0.312,1.105-0.31,2.225,0.006,3.23c0.16,0.506,0.514,0.928,0.985,1.173c0.49,0.255,0.957,0.35,1.298,0.42l0.126,0.026 C17.783,55.985,17.923,56,18.064,56h1.201c0.061,0,0.122-0.003,0.183-0.008c0.319-0.029,0.636-0.075,0.953-0.122l0.3-0.043 c0.835-0.116,1.507-0.744,1.681-1.569c0.203-0.967-0.003-1.836-0.213-2.454c-0.092-0.659,0.001-1.337,0.261-1.915 c0.28-0.205,0.71-0.556,0.988-1.166c0.168-0.352,0.285-0.714,0.389-1.034c0.063-0.195,0.123-0.379,0.183-0.519 c0.089-0.209,0.185-0.406,0.281-0.604c0.252-0.521,0.539-1.111,0.714-1.815c0.136-0.538,0.105-1.022,0.084-1.342 c-0.002-0.026-0.004-0.052-0.006-0.078c0.026-0.064,0.05-0.1,0.06-0.111c0.375-0.346,0.633-0.76,0.822-1.063 c0.057-0.092,0.134-0.215,0.176-0.27c0.888-0.677,1.047-1.673,1.124-2.155l0.022-0.134c0.007-0.035,0.012-0.07,0.017-0.105 c0.042-0.317,0.171-0.676,0.304-1.016c0.056-0.138,0.115-0.297,0.173-0.457c0.01-0.027,0.02-0.055,0.031-0.083 c0.055,0.113,0.108,0.229,0.165,0.354c0.176,0.386,0.393,0.862,0.773,1.443c0.269,0.469,0.728,0.973,1.507,1.241 c-0.076,0.298-0.121,0.643-0.087,1.031c0.054,1.183,0.146,2.552,0.515,3.94c0.068,0.309,0.16,0.581,0.236,0.803 c0.048,0.14,0.113,0.332,0.121,0.399c0.008,0.384-0.115,1.32-0.236,1.953c-0.39,1.087-0.611,2.153-0.657,3.172 c-0.033,0.743,0.349,1.444,0.992,1.818c0.555,0.323,1.18,0.48,1.909,0.48c0.194,0,0.391-0.011,0.587-0.024 c0.111-0.007,0.222-0.016,0.332-0.016c0.005,0,0.011,0,0.016,0c0.013,0,0.026,0,0.039,0.001c0.961,0.309,2.013,0.465,3.131,0.465 l0.232-0.002c0.626-0.011,1.288-0.07,1.967-0.175c0.967-0.149,1.685-0.976,1.695-1.955c0.001-0.027,0.006-0.064,0.01-0.102 c0.036-0.364,0.103-1.041-0.254-1.766c-0.074-0.15-0.166-0.29-0.275-0.417c-0.631-0.737-1.406-1.002-1.919-1.178 c-0.073-0.025-0.164-0.056-0.233-0.082c-0.122-0.124-0.245-0.266-0.371-0.419c0.045-0.201,0.079-0.434,0.076-0.694 c0.007-0.339,0.152-0.896,0.389-1.497c0.391-1.063,0.273-2.046,0.128-2.788c-0.02-0.126,0.035-0.431,0.072-0.633 c0.043-0.238,0.092-0.508,0.12-0.805c0.099-0.994,0.166-1.972,0.219-2.797c0.06-0.745-0.125-1.413-0.261-1.901l-0.052-0.191 c-0.144-0.682-0.507-1.15-0.707-1.409c-0.013-0.017-0.027-0.034-0.04-0.051c-0.888-2.405-1.868-4.159-3.227-5.753 c0.487-0.663,0.977-1.476,1.074-2.512c0.032-0.346,0.053-0.691,0.074-1.036c0.017-0.285,0.034-0.569,0.059-0.853 c0.003-0.034,0.005-0.068,0.007-0.103c0.003-0.067,0.004-0.133,0.004-0.199c0.235,0.073,0.479,0.132,0.732,0.17 c0.043,0.007,0.085,0.018,0.127,0.027C36.993,25.926,37.316,26,37.699,26c0.409,0,0.798-0.083,1.158-0.247 c0.596-0.283,1.016-0.64,1.353-0.928c0.099-0.084,0.197-0.169,0.299-0.247c1.007-0.782,1.303-1.855,1.448-2.629 c0.777-0.423,1.195-1.321,0.99-2.206c-0.109-0.472-0.182-1.003-0.202-1.424c0.003-0.003,0.005-0.005,0.008-0.008 c0.094-0.096,0.194-0.199,0.297-0.311H53c1.105,0,2-0.895,2-2v-2c0-1.103-0.893-1.998-1.996-2l-1.187-0.001l-1.923,0 c-0.042-0.048-0.087-0.095-0.134-0.139c-0.001-0.048-0.002-0.094-0.003-0.137l-0.008-0.289c-0.035-1.069-0.903-1.921-1.972-1.935 l-0.095,0l-0.237,0l-0.294,0.001l-0.108,0c-0.01,0-0.02,0-0.029,0c-0.927,0-1.724,0.633-1.949,1.5h-7.303 c-0.227-0.643-0.77-1.134-1.449-1.286c-0.031-0.125-0.063-0.245-0.093-0.361c-0.042-0.162-0.085-0.323-0.122-0.482 c-0.11-0.471-0.387-0.886-0.78-1.168c-0.889-0.639-1.867-1.179-2.829-1.562C32.254,6.048,32.003,6,31.75,6L31.75,6z"/><linearGradient id="niuaOr0_DC3FUK7Am7ATbb" x1="49" x2="49" y1="25" y2="37.002" gradientUnits="userSpaceOnUse" spreadMethod="reflect"><stop offset="0" stop-color="#6dc7ff"/><stop offset="1" stop-color="#e6abff"/></linearGradient><path fill="url(#niuaOr0_DC3FUK7Am7ATbb)" d="M53,30h-8v-3h10c-0.131-0.793-0.66-1.501-1.395-1.808c-0.493-0.226-1.044-0.19-1.57-0.19 L45,25c-1,0-2,1-2,2v3c0.055,0.998,1,2,2,2h8v3H43c0.134,0.637,0.47,1.237,1.018,1.593c0.48,0.346,1.083,0.424,1.657,0.407H53 c1,0,2-1,2-2v-3C55,31,54.12,30.019,53,30z"/><linearGradient id="niuaOr0_DC3FUK7Am7ATbc" x1="9.5" x2="9.5" y1="25" y2="37" gradientUnits="userSpaceOnUse" spreadMethod="reflect"><stop offset="0" stop-color="#6dc7ff"/><stop offset="1" stop-color="#e6abff"/></linearGradient><path fill="url(#niuaOr0_DC3FUK7Am7ATbc)" d="M6,27h9c0-1.105-0.895-2-2-2H6c-1.105,0-2,0.895-2,2v8c0,1.105,0.895,2,2,2h7 c1.105,0,2-0.895,2-2H6V27z"/><linearGradient id="niuaOr0_DC3FUK7Am7ATbd" x1="37.782" x2="37.782" y1="6.083" y2="55.507" gradientUnits="userSpaceOnUse" spreadMethod="reflect"><stop offset="0" stop-color="#1a6dff"/><stop offset="1" stop-color="#c822ff"/></linearGradient><path fill="url(#niuaOr0_DC3FUK7Am7ATbd)" d="M37.615,19.009c-0.22-0.389-0.55-0.754-0.615-1.203c0.035-0.047,0.107-0.138,0.142-0.184l0,0 c0.473-0.049,0.949-0.018,1.423,0.005C38.259,18.094,37.935,18.551,37.615,19.009z"/><linearGradient id="niuaOr0_DC3FUK7Am7ATbe" x1="38.169" x2="38.169" y1="6.083" y2="55.507" gradientUnits="userSpaceOnUse" spreadMethod="reflect"><stop offset="0" stop-color="#1a6dff"/><stop offset="1" stop-color="#c822ff"/></linearGradient><path fill="url(#niuaOr0_DC3FUK7Am7ATbe)" d="M37.546,17.505c0.314-0.159,0.416-0.486,0.456-0.816c0.253-0.013,0.507-0.021,0.763-0.026 c0.009,0.243,0.017,0.483,0.027,0.726C38.382,17.478,37.962,17.477,37.546,17.505z"/></svg>