<?xml version="1.0" standalone="no"?>
<!DOCTYPE svg PUBLIC "-//W3C//DTD SVG 20010904//EN"
 "http://www.w3.org/TR/2001/REC-SVG-20010904/DTD/svg10.dtd">
<svg version="1.0" xmlns="http://www.w3.org/2000/svg"
 width="64.000000pt" height="64.000000pt" viewBox="0 0 64.000000 64.000000"
 preserveAspectRatio="xMidYMid meet">

<g transform="translate(0.000000,64.000000) scale(0.100000,-0.100000)"
fill="#000000" stroke="none">
<path d="M183 561 c-6 -24 -31 -35 -48 -21 -16 13 -50 -21 -35 -36 15 -15 3
-41 -21 -47 -24 -6 -25 -45 -1 -54 24 -9 32 -24 22 -43 -12 -22 17 -52 39 -40
20 10 35 2 44 -22 3 -10 16 -18 27 -18 11 0 24 8 27 18 9 24 24 32 44 22 22
-12 51 18 39 40 -10 19 -2 34 23 43 23 9 22 48 -2 54 -24 6 -35 31 -21 48 13
16 -21 50 -36 35 -15 -15 -41 -3 -47 21 -3 11 -14 19 -27 19 -13 0 -24 -8 -27
-19z m46 -17 c24 -21 74 -71 95 -95 15 -17 15 -21 0 -38 -21 -24 -71 -74 -95
-95 -21 -18 -25 -16 -87 46 -62 62 -64 66 -46 87 24 28 105 108 112 110 1 1
11 -6 21 -15z m-99 -24 c0 -5 -5 -10 -11 -10 -5 0 -7 5 -4 10 3 6 8 10 11 10
2 0 4 -4 4 -10z m175 0 c3 -5 1 -10 -4 -10 -6 0 -11 5 -11 10 0 6 2 10 4 10 3
0 8 -4 11 -10z m-175 -180 c0 -5 -2 -10 -4 -10 -3 0 -8 5 -11 10 -3 6 -1 10 4
10 6 0 11 -4 11 -10z m180 6 c0 -3 -4 -8 -10 -11 -5 -3 -10 -1 -10 4 0 6 5 11
10 11 6 0 10 -2 10 -4z"/>
<path d="M159 481 c-37 -37 -37 -65 0 -102 16 -16 39 -29 51 -29 28 0 80 52
80 80 0 28 -52 80 -80 80 -12 0 -35 -13 -51 -29z m93 -8 c22 -20 23 -61 1 -85
-34 -38 -103 -11 -103 40 0 54 62 81 102 45z"/>
<path d="M441 353 c-5 -10 -13 -15 -17 -11 -13 14 -45 -12 -39 -31 3 -12 0
-21 -10 -25 -20 -7 -19 -45 1 -53 8 -3 13 -12 9 -21 -8 -20 14 -44 35 -37 11
3 20 -1 24 -10 7 -20 45 -20 52 0 4 9 13 13 24 10 21 -7 43 17 35 37 -4 9 1
18 9 21 20 8 21 46 1 53 -10 4 -13 13 -10 25 6 19 -26 45 -39 31 -4 -4 -12 1
-17 11 -13 22 -45 22 -58 0z m46 -18 c9 -10 23 -13 35 -9 16 5 19 2 14 -14 -4
-12 0 -26 9 -36 15 -15 15 -17 0 -32 -9 -10 -13 -24 -9 -36 5 -16 2 -19 -14
-14 -12 4 -26 0 -36 -9 -15 -15 -17 -15 -32 0 -10 9 -24 13 -36 9 -16 -5 -19
-2 -14 14 4 12 0 26 -9 36 -15 15 -15 17 0 32 9 10 13 24 9 36 -5 17 -3 19 14
14 13 -4 26 -1 34 8 16 19 16 19 35 1z"/>
</g>
</svg>
